<svg
  width="16"
  height="16"
  viewBox="0 0 16 16"
  fill="none"
  xmlns="http://www.w3.org/2000/svg">
  <path
    d="M3.36281 12.3699H0V3.63007H3.32867C4.22769 3.63007 5.00438 3.80503 5.65873 4.15497C6.31593 4.50206 6.82234 5.00278 7.17797 5.65714C7.53644 6.30865 7.71568 7.0896 7.71568 8.00001C7.71568 8.91041 7.53786 9.69279 7.18224 10.3471C6.82661 10.9987 6.32304 11.4994 5.67153 11.8493C5.02003 12.1964 4.25045 12.3699 3.36281 12.3699ZM2.37274 10.3557H3.27746C3.7099 10.3557 4.07833 10.286 4.38274 10.1466C4.69 10.0072 4.9233 9.76676 5.08262 9.42536C5.24478 9.08396 5.32587 8.60884 5.32587 8.00001C5.32587 7.39117 5.24336 6.91606 5.07835 6.57465C4.91618 6.23325 4.6772 5.99285 4.36141 5.85344C4.04845 5.71404 3.66438 5.64434 3.20918 5.64434H2.37274V10.3557Z M8.8135 12.3699V3.63007H12.6031C13.2688 3.63007 13.8278 3.71968 14.2802 3.89892C14.7354 4.07816 15.0782 4.33136 15.3087 4.65854C15.542 4.98571 15.6586 5.37121 15.6586 5.81504C15.6586 6.13652 15.5875 6.42956 15.4452 6.69415C15.3058 6.95873 15.1095 7.18064 14.8563 7.35988C14.6031 7.53627 14.3072 7.6586 13.9687 7.72689V7.81224C14.3442 7.82646 14.6856 7.92177 14.9929 8.09816C15.3001 8.27171 15.5448 8.51211 15.7269 8.81937C15.909 9.12379 16 9.48226 16 9.89479C16 10.3727 15.8748 10.7981 15.6245 11.1708C15.3769 11.5435 15.0242 11.8365 14.5661 12.0499C14.1081 12.2633 13.5618 12.3699 12.9274 12.3699H8.8135ZM11.1862 10.4752H12.2958C12.6941 10.4752 12.9928 10.4012 13.192 10.2533C13.3911 10.1025 13.4907 9.88056 13.4907 9.58752C13.4907 9.38268 13.4438 9.20914 13.3499 9.06689C13.256 8.92464 13.1223 8.81653 12.9487 8.74256C12.778 8.66858 12.5718 8.6316 12.3299 8.6316H11.1862V10.4752ZM11.1862 7.16357H12.1592C12.3669 7.16357 12.5504 7.13086 12.7097 7.06542C12.8691 6.99998 12.9928 6.9061 13.081 6.78376C13.1721 6.65858 13.2176 6.50637 13.2176 6.32714C13.2176 6.05686 13.1208 5.8506 12.9274 5.70835C12.7339 5.56325 12.4893 5.4907 12.1934 5.4907H11.1862V7.16357Z"
    fill="#000000"
  />
</svg>
