<svg
  viewBox="0 0 24 24"
  xmlns="http://www.w3.org/2000/svg">
  <path
    d="M12 24C18.6274 24 24 18.6274 24 12C24 5.37258 18.6274 0 12 0C5.37258 0 0 5.37258 0 12C0 18.6274 5.37258 24 12 24ZM12.4657 19.1391C17.2403 19.1391 21.1109 15.2685 21.1109 10.4938C21.1109 5.71922 17.2403 1.84862 12.4657 1.84862C7.69105 1.84862 3.82045 5.71922 3.82045 10.4938C3.82045 15.2685 7.69105 19.1391 12.4657 19.1391Z"
    fill="currentColor"
    fill-rule="evenodd" />
  <path
    d="M14.1826 8.73125C13.802 9.36786 13.0539 9.73604 12.5112 9.55305C11.9685 9.37028 11.8372 8.70571 12.2174 8.06888C12.598 7.43206 13.3461 7.0641 13.8888 7.24687C14.4315 7.42964 14.5628 8.09421 14.1826 8.73125Z"
    fill="currentColor" />
  <path
    d="M10.8959 16.4437C14.6936 16.4437 17.7723 13.365 17.7723 9.56729C17.7723 5.76958 14.6936 2.69093 10.8959 2.69093C7.09819 2.69093 4.01954 5.76958 4.01954 9.56729C4.01954 13.365 7.09819 16.4437 10.8959 16.4437ZM11.9999 14.4C9.79094 14.4 8 12.43 8 9.99988C8 7.56979 9.79094 5.6 11.9999 5.6C14.2091 5.6 16 7.56979 16 9.99988C16 12.43 14.2091 14.4 11.9999 14.4Z"
    fill="currentColor" />
</svg>
