<svg
  viewBox="0 0 24 24"
  xmlns="http://www.w3.org/2000/svg">
  <path
    d="M5.7436 23.9941V10.8904H3.45773V8.02492H5.7436V5.7068C5.7436 3.96821 6.17287 2.7233 7.03141 1.97206C7.91142 1.19936 9.14558 0.813007 10.7339 0.813007H12.408V3.71064H11.249C10.4978 3.71064 9.96119 3.87163 9.63924 4.19359C9.31729 4.49408 9.15631 5.00922 9.15631 5.73899V8.02492H15.853H19.2656V10.8904H15.853H9.15631V23.9941H5.7436Z"
    fill="currentColor" />
  <path
    d="M17.4875 0.0221361C17.4624 0.03245 17.4314 0.0604454 17.4197 0.0840205C17.4079 0.106122 17.3372 0.340398 17.262 0.604143C17.1869 0.867891 17.0999 1.14637 17.0675 1.22299C16.8406 1.78142 16.3618 2.26029 15.8018 2.48867C15.7252 2.51961 15.4364 2.60949 15.158 2.68905C14.6217 2.84229 14.5937 2.85556 14.573 2.94691C14.5598 3.00731 14.6011 3.08688 14.6585 3.1134C14.685 3.12519 14.9208 3.19591 15.1845 3.27106C15.4483 3.3462 15.7252 3.43314 15.8018 3.46408C16.3633 3.69394 16.8391 4.16986 17.0675 4.72976C17.0999 4.80638 17.1869 5.08486 17.262 5.3486C17.3372 5.61235 17.4079 5.8481 17.4197 5.87462C17.4462 5.93208 17.5258 5.97334 17.5862 5.96008C17.6775 5.93945 17.6908 5.91146 17.844 5.37512C17.9972 4.83732 18.0591 4.66493 18.1711 4.46897C18.4054 4.05935 18.7914 3.70277 19.2069 3.50976C19.3631 3.43756 19.4927 3.39483 20.007 3.24896C20.4873 3.11193 20.5197 3.0972 20.5403 3.00584C20.5506 2.95574 20.5182 2.87471 20.4755 2.84819C20.4593 2.83787 20.2353 2.77009 19.9775 2.69642C19.3454 2.51519 19.2246 2.46951 19.0007 2.33248C18.5645 2.06284 18.2286 1.67238 18.0444 1.22152C18.0134 1.14489 17.9265 0.867891 17.8514 0.604143C17.7762 0.340398 17.7055 0.106122 17.6937 0.0840205C17.6746 0.0442374 17.5965 -0.00143877 17.5538 3.47428e-05C17.5435 0.00150826 17.5139 0.0103486 17.4875 0.0221361Z"
    fill="currentColor" />
  <path
    fill-rule="evenodd"
    clip-rule="evenodd"
    d="M19.2652 8.03078V24H15.8525V21.0405H19.2649V18.6944H15.8525V10.8962V8.03078H19.2652Z"
    fill="currentColor" />
</svg>
