<svg
  viewBox="0 0 24 24"
  xmlns="http://www.w3.org/2000/svg">
  <path
    fill-rule="evenodd"
    clip-rule="evenodd"
    d="M1.79941 23.9257L5.25601 23.9063C5.31291 23.9135 5.83662 23.8088 5.80603 23.5152C5.74129 22.8934 6.58453 19.7756 7.07764 19.8979C7.3614 19.9683 7.64832 20.7596 8.44529 20.5133C9.30206 20.2483 9.38099 19.2126 9.82235 18.9447C10.1036 18.774 10.0372 19.1015 10.0832 19.6422C10.158 20.5247 10.4194 24.029 11.174 23.9998H14.6C14.7631 23.9994 14.9129 23.9404 15.0295 23.8404C15.1455 23.7408 15.2276 23.5995 15.2556 23.435C15.5396 21.7683 16.0192 18.7656 16.6993 17.5325L16.8273 17.3053C17.7222 15.751 18.9053 14.3648 20.3016 12.729C20.4282 12.5807 20.5964 12.3511 20.7279 12.1967C20.7682 12.1496 20.781 12.0895 20.7642 12.029C20.7473 11.9685 20.7052 11.9242 20.6466 11.905C20.1425 11.7423 19.7277 11.5891 19.4811 11.3725C19.4548 11.3498 19.4443 11.3157 19.4527 11.2814C19.4613 11.2473 19.4863 11.2228 19.5201 11.2154C21.7924 10.7279 22.6175 9.5197 23.2141 7.8306C23.5409 6.90512 23.6429 5.96943 23.5226 5.0664C23.403 4.16825 23.0631 3.29757 22.505 2.49628C22.2231 2.09155 21.916 1.74951 21.5911 1.46239C19.8408 -0.0834849 16.5827 -0.562559 14.4645 0.803607C14.2884 0.917196 14.5447 1.41984 14.6473 1.36391C16.7756 0.200185 20.5161 0.869609 20.3477 3.57588C20.3398 3.7011 20.3154 3.82962 20.2754 3.95744C20.446 3.99007 20.6124 4.01381 20.7695 4.01726C20.8458 4.01883 20.9105 4.04918 20.9618 4.10683C21.0131 4.16462 21.0361 4.23364 21.0304 4.31098L21.0278 4.3422C21.0167 4.48525 20.8989 4.59409 20.7581 4.59062C20.4859 4.58431 20.2422 4.55542 19.9942 4.51128C19.9341 4.59409 19.8663 4.67346 19.7919 4.74779C20.0144 4.81292 20.2199 4.88911 20.3916 4.97522C20.5068 5.03303 20.5649 5.16272 20.5321 5.28894C20.5209 5.33222 20.5101 5.37463 20.4989 5.41705C20.4787 5.49511 20.4312 5.55407 20.3604 5.58973C20.2894 5.62552 20.2144 5.62767 20.1411 5.59662C19.7879 5.44666 19.3925 5.32404 19.0065 5.22541C18.7837 5.29543 18.5374 5.32748 18.2705 5.3088C17.9521 5.28608 17.6053 5.19118 17.2368 5.00111C15.292 3.99669 12.9446 3.2872 10.9551 3.23815C10.0688 3.21659 9.25765 3.32715 8.59363 3.60334C7.23096 4.1698 6.93742 5.2199 6.8632 6.50572C6.98307 8.8918 7.60597 10.548 8.46769 11.6208C9.08694 12.3915 9.83092 12.8594 10.5968 13.0795C11.3614 13.299 12.15 13.2726 12.8587 13.0551C13.5986 12.8276 14.2485 12.3924 14.6882 11.8128C14.7996 11.6663 14.9995 11.63 15.1543 11.728L15.1571 11.7298C15.246 11.7861 15.3014 11.8688 15.32 11.9738C15.3389 12.0782 15.3157 12.1753 15.2522 12.2593C14.7208 12.9588 13.9447 13.4813 13.0656 13.7514C12.2346 14.0069 11.308 14.0373 10.4082 13.7787C9.50932 13.5205 8.63869 12.9748 7.91844 12.0782C7.06104 11.0109 6.4186 9.8517 6.20668 7.77617C4.47021 8.54438 1.15715 9.75598 0.609495 12.4716C0.0966763 15.0124 0.753183 21.3137 1.58545 23.8114C1.61351 23.8957 1.71169 23.9247 1.79941 23.9257ZM16.5922 6.44957C16.2172 6.75796 16.1594 7.31969 16.4635 7.70446C16.7676 8.08919 16.6481 7.44422 17.0232 7.13596C17.3986 6.82756 18.1265 6.97234 17.8225 6.5879C17.5181 6.20315 16.9675 6.14145 16.5922 6.44957ZM15.9018 23.9993H17.632C18.0818 24.002 18.3765 23.9911 18.2124 23.4831C17.83 22.2991 17.0051 20.3547 16.8219 18.9054C16.427 19.8035 16.2311 22.4576 16.0388 23.5842C16.0119 23.7433 15.9739 23.8654 15.9018 23.9993Z"
    fill="currentColor" />
</svg>
