<svg
  viewBox="0 0 24 24"
  xmlns="http://www.w3.org/2000/svg">
  <path
    d="M6.68714 14.6501H5.66933V9.34987H6.61032C7.12242 9.34987 7.55451 9.42828 7.90658 9.58512C8.26185 9.74195 8.53071 10.0124 8.71314 10.3965C8.89878 10.7806 8.9916 11.3151 8.9916 12C8.9916 12.6849 8.90038 13.2194 8.71794 13.6035C8.53871 13.9876 8.27626 14.2581 7.93059 14.4149C7.58812 14.5717 7.17364 14.6501 6.68714 14.6501Z"
    fill="currentColor" />
  <path
    d="M16.8328 14.7846H15.5845V12.7105H16.8712C17.1432 12.7105 17.3753 12.7522 17.5673 12.8354C17.7626 12.9186 17.913 13.0402 18.0186 13.2002C18.1242 13.3603 18.177 13.5555 18.177 13.786C18.177 14.1156 18.065 14.3653 17.841 14.5349C17.6169 14.7013 17.2809 14.7846 16.8328 14.7846Z"
    fill="currentColor" />
  <path
    d="M16.6791 11.059H15.5845V9.17704H16.7175C17.0504 9.17704 17.3257 9.25865 17.5433 9.42188C17.761 9.58192 17.8698 9.81396 17.8698 10.118C17.8698 10.3197 17.8186 10.4909 17.7161 10.6317C17.6169 10.7694 17.4777 10.875 17.2985 10.9486C17.1192 11.0222 16.9128 11.059 16.6791 11.059Z"
    fill="currentColor" />
  <path
    d="M3 0C1.34315 0 0 1.34315 0 3V21C0 22.6569 1.34315 24 3 24H21C22.6569 24 24 22.6569 24 21V3C24 1.34315 22.6569 0 21 0H3ZM3 16.9162H6.78316C7.78176 16.9162 8.64753 16.7209 9.38048 16.3305C10.1134 15.9368 10.6799 15.3735 11.08 14.6405C11.4801 13.9044 11.6801 13.0242 11.6801 12C11.6801 10.9758 11.4785 10.0972 11.0752 9.36427C10.6751 8.62813 10.1054 8.06481 9.36607 7.67434C8.62993 7.28066 7.75615 7.08382 6.74475 7.08382H3V16.9162ZM17.1784 7.08382H12.9152V16.9162H17.5433C18.2571 16.9162 18.8716 16.7962 19.3869 16.5561C19.9022 16.3161 20.2991 15.9864 20.5775 15.5671C20.8592 15.1478 21 14.6693 21 14.1316C21 13.6675 20.8976 13.2643 20.6927 12.9218C20.4879 12.5761 20.2126 12.3057 19.867 12.1104C19.5213 11.912 19.1372 11.8048 18.7147 11.7888V11.6927C19.0956 11.6159 19.4285 11.4783 19.7133 11.2799C19.9982 11.0782 20.219 10.8286 20.3759 10.5309C20.5359 10.2332 20.6159 9.90358 20.6159 9.54191C20.6159 9.04261 20.4847 8.60892 20.2222 8.24085C19.963 7.87277 19.5773 7.58792 19.0652 7.38628C18.5563 7.18464 17.9274 7.08382 17.1784 7.08382Z"
    fill="currentColor"
    fill-rule="evenodd"
    clip-rule="evenodd" />
</svg>
