<svg
  viewBox="0 0 24 24"
  xmlns="http://www.w3.org/2000/svg">
  <path
    fill-rule="evenodd"
    d="M15.1393 6.79602L11.995 0L8.8607 6.79602L8.71144 7.08458L6.9602 5.33333C6.85044 5.22357 6.72013 5.1365 6.57672 5.0771C6.43331 5.0177 6.2796 4.98713 6.12438 4.98713C5.96915 4.98713 5.81545 5.0177 5.67204 5.0771C5.52862 5.1365 5.39832 5.22357 5.28856 5.33333C5.1788 5.4431 5.09173 5.5734 5.03233 5.71681C4.97292 5.86022 4.94235 6.01393 4.94235 6.16915C4.94235 6.32438 4.97292 6.47809 5.03233 6.6215C5.09173 6.76491 5.1788 6.89521 5.28856 7.00498L7.02985 8.73632L6.83085 8.83582L6.79104 8.85572L-0.00497532 12L6.79104 15.1443L7.02985 15.2537L5.28856 17.005C5.0682 17.2266 4.94493 17.5268 4.94587 17.8393C4.94633 17.9941 4.97727 18.1473 5.03692 18.2901C5.09657 18.4329 5.18377 18.5625 5.29353 18.6716C5.40329 18.7808 5.53347 18.8672 5.67663 18.926C5.81979 18.9848 5.97313 19.0148 6.1279 19.0143C6.44046 19.0134 6.73985 18.8883 6.9602 18.6667L8.71144 16.9154L8.8607 17.2139L11.995 24L15.1393 17.204L15.2587 16.9652L16.9602 18.6667C17.0693 18.7764 17.199 18.8636 17.3418 18.9233C17.4846 18.9829 17.6377 19.0139 17.7925 19.0143C17.9473 19.0148 18.1006 18.9848 18.2438 18.926C18.3869 18.8672 18.5171 18.7808 18.6269 18.6716C18.7366 18.5625 18.8238 18.4329 18.8835 18.2901C18.9431 18.1473 18.9741 17.9941 18.9745 17.8393C18.975 17.6846 18.945 17.5312 18.8862 17.3881C18.8274 17.2449 18.7409 17.1147 18.6318 17.005L16.9104 15.2836L17.199 15.1343L24.005 12L17.209 8.85572L16.9104 8.71642L18.6318 6.99502C18.7409 6.88526 18.8274 6.75509 18.8862 6.61193C18.945 6.46877 18.975 6.31543 18.9745 6.16066C18.9741 6.0059 18.9431 5.85274 18.8835 5.70993C18.8238 5.56713 18.7366 5.43747 18.6269 5.32836C18.5171 5.21925 18.3869 5.13283 18.2438 5.07403C18.1006 5.01523 17.9473 4.98521 17.7925 4.98567C17.6377 4.98613 17.4846 5.01707 17.3418 5.07672C17.199 5.13638 17.0693 5.22357 16.9602 5.33333L15.2687 7.02488C15.2268 6.9564 15.187 6.88672 15.1493 6.81592L15.1393 6.78607V6.79602ZM11.9851 7.15423L11.5672 8.04975C10.8465 9.6093 9.59437 10.8615 8.03483 11.5821L7.1393 12L8.03483 12.4179C9.59437 13.1385 10.8465 14.3907 11.5672 15.9502L11.9851 16.8458L12.403 15.9502C13.1236 14.3907 14.3758 13.1385 15.9353 12.4179L16.8308 12L15.9353 11.5821C14.3758 10.8615 13.1236 9.6093 12.403 8.04975L11.9851 7.15423Z"
    fill="currentColor" />
  <path
    d="M22.1542 3.47265C22.264 3.36354 22.3512 3.23388 22.4108 3.09108C22.4705 2.94827 22.5014 2.79511 22.5019 2.64035C22.5024 2.48558 22.4723 2.33224 22.4135 2.18908C22.3547 2.04592 22.2683 1.91575 22.1592 1.80598C22.0501 1.69622 21.9204 1.60903 21.7776 1.54937C21.6348 1.48972 21.4817 1.45878 21.3269 1.45832C21.1721 1.45786 21.0188 1.48788 20.8756 1.54668C20.7325 1.60548 20.6023 1.6919 20.4925 1.80101L19.9254 2.36817C19.705 2.58985 19.5818 2.88998 19.5827 3.20254C19.5836 3.5151 19.7087 3.81449 19.9303 4.03484C20.152 4.25519 20.4522 4.37846 20.7647 4.37753C21.0773 4.3766 21.3767 4.25154 21.597 4.02986L22.1542 3.47265ZM4.17413 4.21892C3.71642 4.67663 2.9801 4.67663 2.51244 4.21892L1.95522 3.66171C1.73355 3.44135 1.60849 3.14196 1.60756 2.8294C1.60662 2.51684 1.72989 2.21671 1.95025 1.99504C2.1706 1.77336 2.46999 1.64831 2.78255 1.64737C3.09511 1.64644 3.39524 1.76971 3.61691 1.99006L4.18408 2.55723C4.64179 3.01494 4.64179 3.75126 4.18408 4.21892H4.17413ZM4.17413 19.7811C4.06508 19.6719 3.93557 19.5853 3.793 19.5261C3.65044 19.467 3.49762 19.4366 3.34328 19.4366C3.18895 19.4366 3.03613 19.467 2.89356 19.5261C2.751 19.5853 2.62149 19.6719 2.51244 19.7811L1.95522 20.3383C1.73355 20.5587 1.60849 20.8581 1.60756 21.1706C1.60662 21.4832 1.72989 21.7833 1.95025 22.005C2.1706 22.2267 2.46999 22.3517 2.78255 22.3527C3.09511 22.3536 3.39524 22.2303 3.61691 22.01L4.18408 21.4428C4.64179 20.9851 4.64179 20.2488 4.18408 19.7811H4.17413ZM22.1542 20.5274C22.264 20.6365 22.3512 20.7661 22.4108 20.909C22.4705 21.0518 22.5014 21.2049 22.5019 21.3597C22.5024 21.5144 22.4723 21.6678 22.4135 21.8109C22.3547 21.9541 22.2683 22.0843 22.1592 22.194C22.0501 22.3038 21.9204 22.391 21.7776 22.4507C21.6348 22.5103 21.4817 22.5413 21.3269 22.5417C21.1721 22.5422 21.0188 22.5121 20.8756 22.4533C20.7325 22.3946 20.6023 22.3081 20.4925 22.199L19.9254 21.6319C19.7391 21.4041 19.6444 21.1152 19.6595 20.8214C19.6746 20.5276 19.7986 20.25 20.0073 20.0426C20.2159 19.8352 20.4943 19.7128 20.7882 19.6995C21.082 19.6861 21.3704 19.7826 21.597 19.9702L22.1542 20.5274Z"
    fill="currentColor" />
</svg>
