<svg
  viewBox="0 0 24 24"
  xmlns="http://www.w3.org/2000/svg">
  <path
    d="M16.7546 1.03107C15.5212 0.479171 14.221 0.15951 12.8778 0.0492218C12.3021 -0.00575389 11.7353 -0.0169574 11.1562 0.0272065C10.5943 0.0601834 10.0302 0.126117 9.47584 0.236437C8.26502 0.468343 7.12236 0.887892 6.04855 1.4833C3.71065 2.78336 2.00148 4.64883 0.939215 7.06296C0.338528 8.42288 0.0450321 9.85784 -8.64416e-05 11.3323L-0.000202179 11.3361V11.6941C-0.000202179 11.7901 0.0776761 11.868 0.173751 11.868H1.29546C1.39153 11.868 1.46941 11.7901 1.46941 11.6941V11.6172C1.46941 11.5387 1.47202 11.4597 1.47475 11.3891L1.47623 11.3519C1.47833 11.2996 1.48037 11.2488 1.48047 11.2132C1.49132 10.7025 1.55552 10.1996 1.65304 9.69225C2.03137 7.76346 2.89431 6.08086 4.26476 4.65973C6.32853 2.53077 8.87347 1.47722 11.8727 1.4239C12.5219 1.42403 13.1537 1.47693 13.7821 1.62237L13.7892 1.62402L13.7963 1.62525C14.7124 1.78295 15.5862 2.06688 16.4293 2.4675C18.1913 3.31113 19.594 4.53235 20.6528 6.14485L20.6579 6.15266L20.6636 6.16007C20.6646 6.1614 20.6657 6.1629 20.667 6.16481C20.2744 6.61178 20.0936 7.13569 20.1946 7.74199C20.3631 8.83599 21.4088 9.47453 22.4878 9.25426L22.4895 9.25385C23.5449 9.03057 24.2249 8.00774 23.9316 6.92555L23.9311 6.92358L23.9305 6.92167C23.7007 6.12454 22.96 5.54089 22.0475 5.55251C22.0271 5.55253 22.0076 5.55294 21.9902 5.55349L21.9537 5.49646C20.6769 3.50151 18.9459 2.01175 16.7546 1.03107ZM22.7331 7.75854C22.7331 7.95069 22.5774 8.10645 22.3852 8.10645H21.7284C21.5362 8.10645 21.3805 7.95069 21.3805 7.75854V7.1166C21.3805 6.92445 21.5362 6.76869 21.7284 6.76869H22.3852C22.5774 6.76869 22.7331 6.92445 22.7331 7.1166V7.75854ZM8.88197 11.3702V9.58579V8.67254C8.88197 8.5765 8.95985 8.49862 9.05589 8.49862H9.99448C10.0906 8.49862 10.1685 8.5765 10.1685 8.67254V9.58579V11.681C10.1685 12.4443 9.58675 13.0818 8.82672 13.1515L8.34539 13.1956V14.2973C8.34539 14.705 8.67588 15.0356 9.08367 15.0356H11.8079V8.49862H14.4728L12.4438 5.69011H13.9214L15.8512 8.49862H16.8718C16.9679 8.49862 17.0458 8.5765 17.0458 8.67254V9.41181C17.0458 9.50785 16.9679 9.58579 16.8718 9.58579H16.035V17.3843C16.035 17.4804 15.9571 17.5583 15.861 17.5583H14.8305C14.7345 17.5583 14.6566 17.4804 14.6566 17.3843V9.58579H13.1863V17.3843C13.1863 17.4804 13.1084 17.5583 13.0124 17.5583H11.9818C11.8858 17.5583 11.8079 17.4804 11.8079 17.3843V16.3039H8.53545C7.71993 16.3039 7.05883 15.6429 7.05883 14.8274V12.1084H8.14363C8.55142 12.1084 8.88197 11.7779 8.88197 11.3702ZM22.596 14.3545C22.6956 13.8365 22.762 13.3185 22.7731 12.7896C22.7731 12.7592 22.7749 12.7145 22.777 12.6611V12.6605C22.7802 12.5811 22.7841 12.4824 22.7841 12.3828C22.7841 12.4827 22.7802 12.5816 22.777 12.6611C22.7749 12.7145 22.7731 12.7592 22.7731 12.7896C22.762 13.3185 22.6956 13.8365 22.596 14.3545ZM14.4751 23.5176C14.475 23.5176 14.4752 23.5176 14.4751 23.5176ZM11.1222 23.9508C9.77902 23.8405 8.47881 23.5209 7.24543 22.9689C5.05407 21.9882 3.3231 20.4985 2.04633 18.5036L2.00983 18.4465C1.99241 18.4471 1.97294 18.4475 1.95251 18.4475C1.04008 18.4591 0.299329 17.8755 0.0694949 17.0783L0.0689394 17.0764L0.0684186 17.0745C-0.224875 15.9922 0.455097 14.9694 1.51049 14.7461L1.51227 14.7458C2.59118 14.5255 3.63688 15.164 3.80543 16.258C3.90642 16.8643 3.72561 17.3882 3.33302 17.8352L3.33475 17.8377L3.33642 17.8399L3.3421 17.8473L3.34723 17.8551C4.40603 19.4677 5.80879 20.6889 7.57071 21.5325C8.41378 21.9331 9.28762 22.2171 10.2036 22.3747L10.2109 22.376L10.218 22.3776C10.8463 22.5231 11.4781 22.576 12.1273 22.5761C15.1265 22.5228 17.6715 21.4692 19.7352 19.3403C21.1057 17.9192 21.9687 16.2365 22.347 14.3077C22.4445 13.8004 22.5087 13.2974 22.5195 12.7868C22.5196 12.751 22.5217 12.7006 22.5238 12.6482L22.5253 12.611C22.528 12.5402 22.5306 12.4613 22.5306 12.3828V12.306C22.5306 12.2099 22.6085 12.132 22.7046 12.132H23.8263C23.9223 12.132 24.0002 12.2099 24.0002 12.306V12.6639L24.0001 12.6677C23.955 14.1421 23.6615 15.5771 23.0608 16.9371C21.9985 19.3512 20.2896 21.2165 17.9517 22.5165C16.8779 23.1119 15.735 23.5317 14.5242 23.7636C13.9698 23.8739 13.4057 23.9398 12.8438 23.9728C12.2646 24.0169 11.698 24.0058 11.1222 23.9508ZM1.61535 15.8928C1.42321 15.8928 1.26746 16.0485 1.26746 16.2407V16.8827C1.26746 17.0748 1.42321 17.2305 1.61535 17.2305H2.27222C2.46436 17.2305 2.62012 17.0748 2.62012 16.8827V16.2407C2.62012 16.0485 2.46436 15.8928 2.27222 15.8928H1.61535Z"
    fill="currentColor" />
</svg>
