<svg
  viewBox="0 0 24 24"
  xmlns="http://www.w3.org/2000/svg">
  <path
    d="M11.2598 5.0339C11.184 5.04061 11.1103 5.06224 11.0429 5.09756C10.9755 5.13287 10.9158 5.18116 10.8672 5.23965L0.13572 18.0178C0.0369941 18.1352 -0.0110532 18.287 0.00214716 18.4398C0.0153475 18.5926 0.0887142 18.734 0.206108 18.8327C0.323501 18.9314 0.475305 18.9795 0.628124 18.9663C0.780944 18.9531 0.92226 18.8797 1.02099 18.7623L11.7525 5.98414C11.8267 5.8968 11.8732 5.78933 11.886 5.67544C11.8989 5.56156 11.8775 5.44643 11.8246 5.34475C11.7717 5.24307 11.6898 5.15945 11.5892 5.10456C11.4885 5.04968 11.3739 5.02332 11.2598 5.0339ZM3.30048 5.35877C1.58951 5.35877 0.18445 6.76653 0.18445 8.4748C0.18445 10.1858 1.59221 11.5935 3.30048 11.5935C5.01145 11.5935 6.41921 10.1858 6.41921 8.4748C6.41921 6.76382 5.01145 5.35877 3.30048 5.35877ZM3.30048 7.1645C3.47318 7.16269 3.64451 7.19533 3.80444 7.2605C3.96438 7.32568 4.10973 7.42208 4.23198 7.54408C4.35423 7.66608 4.45093 7.81122 4.51644 7.97103C4.58194 8.13083 4.61494 8.30209 4.61349 8.4748C4.6153 8.64773 4.58257 8.81928 4.51723 8.9794C4.45189 9.13952 4.35524 9.28498 4.23295 9.40727C4.11067 9.52956 3.9652 9.6262 3.80508 9.69155C3.64496 9.75689 3.47341 9.78962 3.30048 9.78781C3.12777 9.78926 2.95651 9.75626 2.79671 9.69076C2.63691 9.62525 2.49176 9.52855 2.36976 9.4063C2.24777 9.28405 2.15136 9.1387 2.08619 8.97876C2.02101 8.81882 1.98837 8.6475 1.99018 8.4748C1.98873 8.30232 2.02164 8.13129 2.08698 7.97166C2.15231 7.81204 2.24878 7.66702 2.37074 7.54506C2.4927 7.42309 2.63772 7.32663 2.79734 7.2613C2.95697 7.19596 3.128 7.16305 3.30048 7.1645ZM8.55252 12.4138C6.84154 12.4138 5.43378 13.8216 5.43378 15.5326C5.43378 17.2435 6.84154 18.6459 8.55252 18.6459C10.2635 18.6459 11.6685 17.2435 11.6685 15.5326C11.6685 13.8189 10.2608 12.4138 8.55252 12.4138ZM8.55252 14.2196C8.72545 14.2177 8.897 14.2505 9.05712 14.3158C9.21724 14.3812 9.3627 14.4778 9.48499 14.6001C9.60728 14.7224 9.70392 14.8678 9.76927 15.028C9.83461 15.1881 9.86733 15.3596 9.86552 15.5326C9.86697 15.7053 9.83398 15.8765 9.76847 16.0363C9.70297 16.1961 9.60626 16.3413 9.48401 16.4633C9.36176 16.5853 9.21642 16.6817 9.05648 16.7469C8.89654 16.812 8.72522 16.8447 8.55252 16.8429C8.37982 16.8447 8.20849 16.812 8.04855 16.7469C7.88861 16.6817 7.74327 16.5853 7.62102 16.4633C7.49877 16.3413 7.40206 16.1961 7.33655 16.0363C7.27105 15.8765 7.23806 15.7053 7.23951 15.5326C7.23769 15.3596 7.27042 15.1881 7.33576 15.028C7.40111 14.8678 7.49775 14.7224 7.62004 14.6001C7.74233 14.4778 7.88779 14.3812 8.04791 14.3158C8.20803 14.2505 8.37959 14.2177 8.55252 14.2196ZM15.7483 17.4953C15.6164 17.4983 15.4895 17.5461 15.3885 17.631C15.2875 17.7159 15.2185 17.8328 15.1929 17.9622C15.1674 18.0917 15.1867 18.226 15.2479 18.3429C15.309 18.4598 15.4082 18.5524 15.5291 18.6053C15.5994 18.6323 15.6725 18.6486 15.7483 18.6486H23.4125C23.4922 18.6411 23.5706 18.6229 23.6454 18.5944C23.7506 18.5498 23.8403 18.4751 23.9034 18.3798C23.9664 18.2845 24 18.1727 24 18.0584C24 17.9055 23.9392 17.7588 23.8311 17.6507C23.723 17.5425 23.5763 17.4818 23.4234 17.4818H15.7619L15.7483 17.4953Z"
    fill="currentColor" />
</svg>
