<svg
  viewBox="0 0 64 64"
  xmlns="http://www.w3.org/2000/svg">
  <rect
    width="64"
    height="64"
    rx="8"
    fill="#eff1f5" />
  <path
    d="M20.2477 44.0173H11V19.9827H20.1538C22.6261 19.9827 24.762 20.4638 26.5615 21.4262C28.3688 22.3807 29.7614 23.7576 30.7394 25.5571C31.7252 27.3488 32.2181 29.4964 32.2181 32C32.2181 34.5036 31.7291 36.6552 30.7512 38.4546C29.7732 40.2463 28.3884 41.6233 26.5967 42.5856C24.8051 43.5401 22.6887 44.0173 20.2477 44.0173ZM17.525 38.4781H20.013C21.2022 38.4781 22.2154 38.2864 23.0525 37.903C23.8975 37.5197 24.5391 36.8586 24.9772 35.9197C25.4232 34.9809 25.6461 33.6743 25.6461 32C25.6461 30.3257 25.4192 29.0191 24.9655 28.0803C24.5195 27.1414 23.8623 26.4803 22.9939 26.097C22.1332 25.7136 21.077 25.5219 19.8252 25.5219H17.525V38.4781Z M35.2371 44.0173V19.9827H45.6584C47.4892 19.9827 49.0265 20.2291 50.2705 20.722C51.5223 21.2149 52.4651 21.9112 53.0988 22.811C53.7404 23.7107 54.0611 24.7708 54.0611 25.9913C54.0611 26.8754 53.8656 27.6813 53.4744 28.4089C53.091 29.1365 52.5512 29.7467 51.8548 30.2396C51.1585 30.7247 50.3448 31.0611 49.4138 31.2489V31.4836C50.4466 31.5227 51.3854 31.7848 52.2304 32.2699C53.0753 32.7472 53.7482 33.4083 54.2489 34.2533C54.7496 35.0904 55 36.0762 55 37.2106C55 38.525 54.6558 39.6947 53.9673 40.7196C53.2866 41.7445 52.3164 42.5504 51.0568 43.1372C49.7972 43.7239 48.295 44.0173 46.5503 44.0173H35.2371ZM41.7622 38.8067H44.8134C45.9088 38.8067 46.7303 38.6033 47.2779 38.1964C47.8256 37.7818 48.0994 37.1715 48.0994 36.3657C48.0994 35.8024 47.9703 35.3251 47.7121 34.9339C47.454 34.5427 47.0862 34.2454 46.609 34.042C46.1396 33.8386 45.5723 33.7369 44.9073 33.7369H41.7622V38.8067ZM41.7622 29.6998H44.4379C45.009 29.6998 45.5137 29.6098 45.9518 29.4299C46.3899 29.2499 46.7303 28.9918 46.9728 28.6553C47.2232 28.3111 47.3483 27.8925 47.3483 27.3996C47.3483 26.6564 47.0823 26.0891 46.5503 25.6979C46.0183 25.2989 45.3454 25.0994 44.5318 25.0994H41.7622V29.6998Z"
    fill="#fe640b" />
</svg>
