<svg
  viewBox="0 0 24 24"
  xmlns="http://www.w3.org/2000/svg">
  <path
    d="M8.25 1.5C7.42157 1.5 6.75 2.17157 6.75 3V21C6.75 21.8284 7.42157 22.5 8.25 22.5H15.75C16.5784 22.5 17.25 21.8284 17.25 21V3C17.25 2.17157 16.5784 1.5 15.75 1.5H14.9524C14.8859 1.75726 14.7517 1.99458 14.5607 2.18566C14.2794 2.46697 13.8978 2.625 13.5 2.625H10.5C10.1022 2.625 9.72064 2.46696 9.43934 2.18566C9.24826 1.99458 9.11406 1.75726 9.04763 1.5H8.25ZM8.25 0H15.75C17.4069 0 18.75 1.34315 18.75 3V21C18.75 22.6569 17.4069 24 15.75 24H8.25C6.59315 24 5.25 22.6569 5.25 21V3C5.25 1.34315 6.59315 0 8.25 0Z"
    fill="currentColor" />
  <path
    d="M7.90911 17.8977V16.125L12.0512 12.2898C12.4034 11.9489 12.6989 11.642 12.9375 11.3693C13.1799 11.0966 13.3637 10.8295 13.4887 10.5682C13.6137 10.303 13.6762 10.017 13.6762 9.71022C13.6762 9.36931 13.5985 9.07575 13.4432 8.82954C13.2879 8.57954 13.0758 8.38825 12.8068 8.25567C12.5379 8.11931 12.233 8.05113 11.8921 8.05113C11.536 8.05113 11.2254 8.1231 10.9602 8.26704C10.6951 8.41098 10.4905 8.61742 10.3466 8.88636C10.2027 9.15529 10.1307 9.47537 10.1307 9.84658H7.79547C7.79547 9.08522 7.96782 8.42423 8.31252 7.86363C8.65721 7.30302 9.14017 6.86931 9.76138 6.56249C10.3826 6.25567 11.0985 6.10226 11.9091 6.10226C12.7424 6.10226 13.4678 6.24999 14.0852 6.54545C14.7065 6.83711 15.1894 7.24242 15.5341 7.76136C15.8788 8.28029 16.0512 8.87499 16.0512 9.54545C16.0512 9.98484 15.964 10.4186 15.7898 10.8466C15.6193 11.2746 15.3144 11.75 14.875 12.2727C14.4356 12.7917 13.8163 13.4148 13.0171 14.142L11.3182 15.8068V15.8864H16.2046V17.8977H7.90911Z"
    fill="currentColor" />
</svg>
