<svg
  viewBox="0 0 24 24"
  xmlns="http://www.w3.org/2000/svg">
  <path
    d="M4.009 2.224l-.083.032A6.929 6.929 0 00.032 6.15L0 6.233V2.224h4.009zM24 15.335a6.453 6.453 0 01-6.222 6.441V17.77a2.445 2.445 0 001.733-3.9l-.133-.178-.178.133A6.446 6.446 0 018.893 8.89h4.006a2.444 2.444 0 004.868 0h4.007a6.471 6.471 0 01-.17 1.27l-.032.134.106.088A6.43 6.43 0 0124 15.336z M21.774 8.447h-4.007a2.444 2.444 0 00-4.868 0h-4.02a2.452 2.452 0 00-3.024-2.15 2.469 2.469 0 00-1.43.995 2.441 2.441 0 00-.415 1.155H.004A6.356 6.356 0 01.939 5.32a6.441 6.441 0 015.505-3.097h.019a6.431 6.431 0 014.277 1.642l.149.133.148-.133a6.444 6.444 0 0110.737 4.58z"
    fill="currentColor" />
</svg>
