<svg
  viewBox="0 0 24 24"
  xmlns="http://www.w3.org/2000/svg">
  <path
    d="M0.991331 1.83749C1.62607 1.20275 2.48696 0.846161 3.38462 0.846161H10.7692C11.014 0.846161 11.2488 0.943413 11.4219 1.11652L13.6131 3.3077H20.6154C21.513 3.3077 22.3739 3.66429 23.0087 4.29903C23.6434 4.93377 24 5.79466 24 6.69231V19.7692C24 20.6669 23.6434 21.5278 23.0087 22.1625C22.3739 22.7973 21.513 23.1539 20.6154 23.1539H12H3.38462C2.48696 23.1539 1.62607 22.7973 0.991331 22.1625C0.356593 21.5278 0 20.6669 0 19.7692V4.23078C0 3.33312 0.356592 2.47223 0.991331 1.83749ZM3.38462 2.69231C2.97659 2.69231 2.58528 2.8544 2.29676 3.14292C2.00824 3.43144 1.84615 3.82275 1.84615 4.23078V19.7692C1.84615 20.1773 2.00824 20.5686 2.29676 20.8571C2.58528 21.1456 2.97659 21.3077 3.38462 21.3077H20.6154C21.0234 21.3077 21.4147 21.1456 21.7032 20.8571C21.9918 20.5686 22.1538 20.1773 22.1538 19.7692V6.69231C22.1538 6.28429 21.9918 5.89297 21.7032 5.60446C21.4147 5.31594 21.0234 5.15385 20.6154 5.15385H13.2308C12.986 5.15385 12.7512 5.0566 12.5781 4.88349L10.3869 2.69231H3.38462Z"
    fill="currentColor" />
  <path
    d="M12 7.78665C12.1987 7.78665 12.375 7.91376 12.4379 8.10222L13.6578 11.7614L16.6749 12.893C16.855 12.9605 16.9744 13.1327 16.9744 13.3251C16.9744 13.5175 16.855 13.6897 16.6749 13.7573L13.6578 14.8888L12.4379 18.548C12.375 18.7365 12.1987 18.8636 12 18.8636C11.8014 18.8636 11.625 18.7365 11.5622 18.548L10.3422 14.8888L7.32511 13.7573C7.14498 13.6897 7.02564 13.5175 7.02564 13.3251C7.02564 13.1327 7.14498 12.9605 7.32511 12.893L10.3422 11.7614L11.5622 8.10222C11.625 7.91376 11.8014 7.78665 12 7.78665Z"
    fill="currentColor" />
  <path
    d="M8.15385 16.1456C8.40875 16.1456 8.61539 16.3523 8.61539 16.6072V17.2738H9.28205C9.53696 17.2738 9.74359 17.4805 9.74359 17.7354C9.74359 17.9903 9.53696 18.1969 9.28205 18.1969H8.61539V18.8636C8.61539 19.1185 8.40875 19.3251 8.15385 19.3251C7.89895 19.3251 7.69231 19.1185 7.69231 18.8636V18.1969H7.02564C6.77074 18.1969 6.56411 17.9903 6.56411 17.7354C6.56411 17.4805 6.77074 17.2738 7.02564 17.2738H7.69231V16.6072C7.69231 16.3523 7.89895 16.1456 8.15385 16.1456Z"
    fill="currentColor" />
  <path
    d="M8.15385 7.32511C8.40875 7.32511 8.61539 7.53175 8.61539 7.78665V8.45331H9.28205C9.53696 8.45331 9.74359 8.65995 9.74359 8.91485C9.74359 9.16975 9.53696 9.37639 9.28205 9.37639H8.61539V10.0431C8.61539 10.298 8.40875 10.5046 8.15385 10.5046C7.89895 10.5046 7.69231 10.298 7.69231 10.0431V9.37639H7.02564C6.77074 9.37639 6.56411 9.16975 6.56411 8.91485C6.56411 8.65995 6.77074 8.45331 7.02564 8.45331H7.69231V7.78665C7.69231 7.53175 7.89895 7.32511 8.15385 7.32511Z"
    fill="currentColor" />
</svg>
