<svg
  viewBox="0 0 24 24"
  xmlns="http://www.w3.org/2000/svg">
  <path
    d="M24 11.9662V13.0149C23.0584 13.0149 22.3987 13.2122 22.021 13.6069C21.6488 14.0016 21.4628 14.6613 21.4628 15.5859V18.2923C21.4628 19.0704 21.3867 19.7442 21.2344 20.3136C21.0878 20.8831 20.8454 21.3539 20.5071 21.726C20.1688 22.0982 19.7177 22.3744 19.1539 22.5549C18.5901 22.7353 17.8937 22.8255 17.0649 22.8255V21.1678C17.719 21.1678 18.232 21.0635 18.6042 20.8549C18.9819 20.6519 19.2469 20.339 19.3992 19.9161C19.557 19.4933 19.636 18.952 19.636 18.2923V14.9094C19.636 14.4696 19.6924 14.0692 19.8051 13.7084C19.9235 13.3475 20.1378 13.0374 20.4479 12.7781C20.758 12.5187 21.1978 12.3186 21.7672 12.1776C22.3423 12.0366 23.0866 11.9662 24 11.9662ZM17.0649 1.1745C17.8937 1.1745 18.5901 1.26471 19.1539 1.44514C19.7177 1.62556 20.1688 1.90184 20.5071 2.27396C20.8454 2.64609 21.0878 3.11689 21.2344 3.68635C21.3867 4.25582 21.4628 4.92959 21.4628 5.70768V8.41405C21.4628 9.33873 21.6488 9.99841 22.021 10.3931C22.3987 10.7878 23.0584 10.9851 24 10.9851V12.0338C23.0866 12.0338 22.3423 11.9634 21.7672 11.8224C21.1978 11.6814 20.758 11.4813 20.4479 11.2219C20.1378 10.9626 19.9235 10.6525 19.8051 10.2916C19.6924 9.93075 19.636 9.53043 19.636 9.09065V5.70768C19.636 5.048 19.557 4.50672 19.3992 4.08385C19.2469 3.65534 18.9819 3.3396 18.6042 3.13662C18.232 2.93364 17.719 2.83215 17.0649 2.83215V1.1745ZM24 10.9851V13.0149H22.004V10.9851H24Z"
    fill="currentColor" />
  <path
    d="M12 12C12.5435 12 13.0748 11.8388 13.5267 11.5369C13.9786 11.2349 14.3308 10.8057 14.5388 10.3036C14.7468 9.80147 14.8012 9.24894 14.6952 8.71588C14.5892 8.18282 14.3275 7.69317 13.9431 7.30885C13.5588 6.92454 13.0692 6.66281 12.5361 6.55678C12.003 6.45075 11.4505 6.50517 10.9484 6.71316C10.4462 6.92115 10.0171 7.27337 9.71511 7.72528C9.41316 8.17718 9.25199 8.70848 9.25199 9.25199C9.25199 9.98081 9.54151 10.6798 10.0569 11.1951C10.5722 11.7105 11.2712 12 12 12ZM12 12.7851C10.2967 12.7851 6.89655 13.8372 6.89655 15.9257V17.496H17.1035V15.9257C17.1035 13.8372 13.7033 12.7851 12 12.7851Z"
    fill="currentColor" />
  <path
    d="M0 12.0338V10.9851C0.941593 10.9851 1.59845 10.7878 1.97058 10.3931C2.34834 9.99841 2.53723 9.33873 2.53723 8.41405V5.70768C2.53723 4.92959 2.61052 4.25582 2.75712 3.68635C2.90935 3.11689 3.15462 2.64609 3.49292 2.27396C3.83121 1.90184 4.28228 1.62556 4.8461 1.44514C5.40993 1.26471 6.10626 1.1745 6.93509 1.1745V2.83215C6.28105 2.83215 5.76514 2.93364 5.38738 3.13662C5.01525 3.3396 4.75025 3.65534 4.59238 4.08385C4.44015 4.50672 4.36403 5.048 4.36403 5.70768V9.09065C4.36403 9.53043 4.30483 9.93075 4.18642 10.2916C4.07366 10.6525 3.86222 10.9626 3.55212 11.2219C3.24201 11.4813 2.79941 11.6814 2.2243 11.8224C1.65484 11.9634 0.913402 12.0338 0 12.0338ZM6.93509 22.8255C6.10626 22.8255 5.40993 22.7353 4.8461 22.5549C4.28228 22.3744 3.83121 22.0982 3.49292 21.726C3.15462 21.3539 2.90935 20.8831 2.75712 20.3136C2.61052 19.7442 2.53723 19.0704 2.53723 18.2923V15.5859C2.53723 14.6613 2.34834 14.0016 1.97058 13.6069C1.59845 13.2122 0.941593 13.0149 0 13.0149V11.9662C0.913402 11.9662 1.65484 12.0366 2.2243 12.1776C2.79941 12.3186 3.24201 12.5187 3.55212 12.7781C3.86222 13.0374 4.07366 13.3475 4.18642 13.7084C4.30483 14.0692 4.36403 14.4696 4.36403 14.9094V18.2923C4.36403 18.952 4.44015 19.4933 4.59238 19.9161C4.75025 20.339 5.01525 20.6519 5.38738 20.8549C5.76514 21.0635 6.28105 21.1678 6.93509 21.1678V22.8255ZM0 13.0149V10.9851H1.99595V13.0149H0Z"
    fill="currentColor" />
</svg>
