<svg
  viewBox="0 0 24 24"
  xmlns="http://www.w3.org/2000/svg">
  <path
    d="M4.8 4.8H7.2V7.2H4.8V4.8ZM4.8 12H7.2V9.6H4.8V12ZM24 9.6V21.6C24 22.92 22.92 24 21.6 24H2.4C1.08 24 0 22.92 0 21.6V2.4C0 1.08 1.08 0 2.4 0H14.4C15.72 0 16.8 1.08 16.8 2.4V7.2H21.6C22.92 7.2 24 8.28 24 9.6ZM14.4 7.2V2.4H2.4V21.6H12V16.8H9.6V14.4H12V12H9.6V9.6H12C12 8.28 13.08 7.2 14.4 7.2ZM21.6 21.6V9.6H14.4V21.6H21.6ZM4.8 16.8H7.2V14.4H4.8V16.8ZM16.8 14.4H19.2V12H16.8V14.4ZM16.8 19.2H19.2V16.8H16.8V19.2ZM9.6 7.2H12V4.8H9.6V7.2Z"
    fill="currentColor" />
</svg>
